<svg width="60" height="60" viewBox="0 0 60 60" fill="none" xmlns="http://www.w3.org/2000/svg">
<mask id="mask0_8_84" style="mask-type:alpha" maskUnits="userSpaceOnUse" x="0" y="0" width="60" height="60">
<circle cx="30" cy="30" r="30" fill="#0BCAD4"/>
</mask>
<g mask="url(#mask0_8_84)">
<circle cx="30" cy="30" r="30" fill="#0BCAD4"/>
<ellipse cx="22.1739" cy="43.6957" rx="11.7391" ry="3.26087" fill="#0AA8B0"/>
<path d="M27.6725 24.6963L27.3591 25.0097L25.7986 32.2874L22.534 35.5518L24.2583 38.3504L33.9993 29.4518L27.6725 24.6963Z" fill="#D5E7FF"/>
<path d="M37.9124 34.9363L33.5781 29.0306L24.2583 38.3504L27.0569 40.0748L30.3214 36.8102L37.5991 35.2496L37.9124 34.9363Z" fill="#ACCEFF"/>
<path d="M25.2166 38.2344L22.534 35.5518L19.1976 38.8882C17.9486 40.1372 17.9486 42.1621 19.1976 43.4111L25.2166 38.2344Z" fill="#6B66D0"/>
<path d="M27.0569 40.0748L24.7955 37.8133L19.1976 43.4112C20.4465 44.6601 22.4715 44.6601 23.7204 43.4112L27.0569 40.0748Z" fill="#524798"/>
<path d="M55.2706 7.33818C52.4429 4.51054 47.8583 4.51054 45.0306 7.33818L43.6262 8.74259L48.2924 15.1585L55.2706 7.33818Z" fill="#D5E7FF"/>
<path d="M55.2706 7.33817L47.9379 14.6709L53.8662 18.9825L55.2706 17.5781C58.0983 14.7504 58.0983 10.1659 55.2706 7.33817V7.33817Z" fill="#ACCEFF"/>
<path d="M27.6704 24.6962L43.6217 8.74488L49.1619 14.2851L33.2106 30.2364L27.6704 24.6962Z" fill="#EAF1FF"/>
<path d="M32.7893 29.8161L48.7406 13.8648L53.8598 18.984L37.9085 34.9354L32.7893 29.8161Z" fill="#D5E7FF"/>
<path d="M33.1464 25.2967L42.8555 15.5877L45.1982 17.9304L35.4892 27.6395L33.1464 25.2967Z" fill="#D5E7FF"/>
<path d="M35.2273 27.3779L44.9363 17.6689L47.0172 19.7498L37.3082 29.4588L35.2273 27.3779Z" fill="#ACCEFF"/>
<path d="M46.427 11.5434C45.1461 12.8242 45.1461 14.901 46.427 16.1818L49.1673 14.2838L51.0654 11.5434C49.7845 10.2625 47.7079 10.2625 46.427 11.5434V11.5434Z" fill="#E06379"/>
<path d="M51.0653 11.5434L46.4269 16.1818C47.7078 17.4626 49.7845 17.4626 51.0653 16.1818C52.3463 14.9009 52.3463 12.8242 51.0653 11.5434V11.5434Z" fill="#C63C50"/>
</g>
</svg>
