<svg width="115" height="100" viewBox="0 0 115 100" fill="none" xmlns="http://www.w3.org/2000/svg">
<path d="M104.589 26.6862H97.5515C91.5665 12.589 78.3877 2.34441 63.2156 0.387814C48.1804 -1.60055 33.4076 4.14015 23.7429 15.6962C20.9018 19.0937 18.6481 22.7874 16.998 26.6862H10.0781C4.52082 26.6862 0 31.1707 0 36.6835V50.0133C0 55.526 4.52082 60.0106 10.0781 60.0106H23.8742L22.4308 55.64C18.2282 42.909 20.5936 29.9013 28.9166 19.9528C37.0953 10.1734 49.5846 5.33428 62.3431 6.99406C75.8359 8.73759 87.5478 18.2033 92.1882 31.1152L92.2164 31.1901C92.9644 33.1622 93.4894 35.1897 93.7911 37.2758C94.7982 43.5079 94.2242 49.8244 92.1344 55.5425L92.1197 55.5823C86.9326 70.1915 72.9813 80.0053 57.399 80.0053C51.8054 80.0053 47.2552 84.4899 47.2552 90.0027C47.2552 95.5154 51.776 100 57.3333 100C62.8906 100 67.4115 95.5154 67.4115 90.0027V85.5083C80.8252 82.3456 92.0921 72.9132 97.5076 60.0104H104.589C110.146 60.0104 114.667 55.5258 114.667 50.0131V36.6833C114.667 31.1705 110.146 26.6862 104.589 26.6862V26.6862Z" fill="#0AA8B0"/>
<ellipse cx="57.3334" cy="43.7438" rx="28.6667" ry="28.4369" fill="#0AA8B0"/>
<path d="M30 77.3333C28 74.8911 37.8639 60.2372 37.8639 60.2372L43.0329 65.3647L48.2018 70.4922C48.2018 70.4922 32 79.7756 30 77.3333Z" fill="#0AA8B0"/>
<rect width="8.02667" height="31.8493" rx="4" transform="matrix(-1 0 0 1 61.3466 28.3879)" fill="white"/>
<rect width="7.96233" height="32.1067" rx="3.98116" transform="matrix(0 -1 -1 0 73.3867 47.7249)" fill="white"/>
</svg>
